<svg width="295" height="219" viewBox="0 0 295 219" fill="none" xmlns="http://www.w3.org/2000/svg">
<g clip-path="url(#clip0_774_1924)">
<path d="M110.392 36.8098C119.071 44.0576 128.747 37.9895 138.021 37.5259C142.321 37.3109 146.613 38.3456 150.852 39.1175C154.875 39.8501 158.883 40.9157 162.561 42.733C166.57 44.6444 169.98 47.6117 172.423 51.3148C172.908 52.0717 173.64 51.5128 173.635 50.608C173.576 41.0001 169.414 41.7782 165.067 42.4868C160.936 43.1604 157.423 39.0685 153.346 38.1878C149.079 37.331 144.767 36.7178 140.43 36.351C135.729 35.8852 131.016 35.5692 126.291 35.4029C120.993 35.2164 115.694 35.2186 110.392 35.4093C109.492 35.4413 109.487 36.8419 110.392 36.8097L110.392 36.8098Z" fill="#3F3D56"/>
<path d="M81.117 114.103C81.241 114.236 81.3084 114.411 81.3052 114.593C81.302 114.774 81.2284 114.947 81.0998 115.075C80.9713 115.204 80.7978 115.277 80.6161 115.28C80.4343 115.284 80.2583 115.216 80.1253 115.092C74.3904 110.186 68.6555 105.283 62.9205 100.384C62.9139 100.376 62.906 100.37 62.8972 100.365C62.4989 100.067 62.1222 99.7406 61.7698 99.3893C56.4325 98.7685 50.5666 96.7146 45.0094 95.823C40.1024 96.5512 35.2095 97.4194 30.2885 98.0636C26.001 98.6583 21.6785 98.9671 17.3498 98.9879C13.8275 98.9692 14.8465 89.9581 11.6516 88.2963C8.33042 86.5692 1.66996 92.1586 0.818608 88.6669C0.397972 86.8794 0.124194 85.0607 0 83.2287V71.8434C0.453743 66.886 8.36315 68.4153 12.1194 64.9563C17.7561 59.7655 19.67 47.5885 26.8831 47.4438C35.479 47.2628 44.0776 47.6386 52.6248 48.5688C59.5946 49.3343 66.9247 50.0765 73.3706 53.0407C76.1352 54.3151 78.7407 61.6859 80.6445 64.0805C82.8173 66.8779 84.0471 70.2898 84.1575 73.8273C84.499 81.3382 81.0749 88.2095 79.1991 95.3002C77.5713 101.439 76.6544 108.879 81.117 114.103Z" fill="#F2F2F2"/>
<path d="M63.5722 101.103C69.3864 106.076 75.2015 111.048 81.0173 116.02C81.1504 116.144 81.3265 116.211 81.5084 116.208C81.6903 116.205 81.8639 116.131 81.9926 116.003C82.1212 115.874 82.1949 115.701 82.1981 115.52C82.2013 115.338 82.1337 115.162 82.0096 115.03C77.5473 109.81 78.4643 102.369 80.0909 96.227C81.969 89.1357 85.393 82.2668 85.0503 74.7578C84.9416 71.2193 83.7113 67.8064 81.5363 65.0096C79.5702 62.6563 77.0799 60.7943 74.2643 59.5723C67.8186 56.6081 60.4899 55.8627 53.5169 55.099C44.9708 54.1681 36.3732 53.7917 27.7783 53.9724C20.563 54.1205 12.1228 54.252 6.48646 59.4443C1.35339 64.173 0.652293 71.6093 0.701793 78.1747C0.730468 81.9785 0.803597 85.8855 1.70974 89.5977C2.56153 93.0873 4.40872 96.4862 7.73098 98.2128C10.9265 99.8736 14.7229 99.8996 18.242 99.9165C22.5706 99.8983 26.8931 99.5888 31.18 98.9899C39.76 97.87 48.2581 96.0609 56.9075 95.5143C59.024 95.3806 61.147 95.321 63.2676 95.3652C64.171 95.3841 64.1709 93.9837 63.2676 93.9648C54.8576 93.7895 46.5341 95.2307 38.2596 96.5432C30.2561 97.8127 22.0744 99.0094 13.9506 98.3671C12.1697 98.284 10.4186 97.8797 8.78209 97.1739C7.2015 96.4244 5.86411 95.2462 4.9228 93.7741C2.80786 90.4873 2.40715 86.37 2.22446 82.5355C2.01605 79.217 2.04692 75.8878 2.31682 72.5737C2.62852 69.3604 3.37914 66.101 5.09379 63.3269C9.005 56.9989 16.9129 54.3657 23.662 55.5025C31.2621 56.7827 37.0756 62.845 48.6729 56.0322C52.3133 53.8937 57.0838 56.8697 61.261 57.4986C64.3828 57.9282 67.462 58.6236 70.4649 59.5773C73.3542 60.4572 76.0462 61.8852 78.3934 63.7829C80.8502 65.8562 82.5604 68.6741 83.2637 71.8073C84.8744 79.0227 81.6817 86.2248 79.5719 92.977C77.6912 98.996 76.0868 106.065 78.619 112.138C79.2095 113.55 80.0189 114.859 81.0173 116.02L82.0096 115.03C76.1954 110.056 70.3803 105.084 64.5645 100.113C63.8822 99.5291 62.8851 100.515 63.5722 101.103H63.5722Z" fill="#E6E6E6"/>
<path d="M38.7974 68.5205H17.6443C17.4502 68.5205 17.2641 68.4435 17.1268 68.3066C16.9896 68.1696 16.9125 67.9838 16.9125 67.7901C16.9125 67.5964 16.9896 67.4107 17.1268 67.2737C17.2641 67.1367 17.4502 67.0598 17.6443 67.0598H38.7974C38.9915 67.0598 39.1777 67.1367 39.3149 67.2737C39.4522 67.4107 39.5293 67.5964 39.5293 67.7901C39.5293 67.9838 39.4522 68.1696 39.3149 68.3066C39.1777 68.4435 38.9915 68.5205 38.7974 68.5205Z" fill="white"/>
<path d="M38.7974 84.0947H17.6443C17.5482 84.0947 17.4531 84.0758 17.3643 84.0391C17.2755 84.0024 17.1948 83.9486 17.1268 83.8808C17.0589 83.813 17.005 83.7325 16.9682 83.6438C16.9314 83.5552 16.9125 83.4603 16.9125 83.3644C16.9125 83.2685 16.9314 83.1735 16.9682 83.0849C17.005 82.9963 17.0589 82.9157 17.1268 82.8479C17.1948 82.7801 17.2755 82.7263 17.3643 82.6896C17.4531 82.6529 17.5482 82.634 17.6443 82.634H38.7974C38.9915 82.634 39.1777 82.711 39.3149 82.8479C39.4522 82.9849 39.5293 83.1707 39.5293 83.3644C39.5293 83.5581 39.4522 83.7438 39.3149 83.8808C39.1777 84.0177 38.9915 84.0947 38.7974 84.0947Z" fill="white"/>
<path d="M55.9771 76.3127H17.6443C17.4502 76.3127 17.2641 76.2358 17.1268 76.0988C16.9896 75.9618 16.9125 75.7761 16.9125 75.5824C16.9125 75.3887 16.9896 75.2029 17.1268 75.0659C17.2641 74.929 17.4502 74.8521 17.6443 74.8521H55.9771C56.1712 74.8521 56.3574 74.929 56.4946 75.0659C56.6319 75.2029 56.709 75.3887 56.709 75.5824C56.709 75.7761 56.6319 75.9618 56.4946 76.0988C56.3574 76.2358 56.1712 76.3127 55.9771 76.3127Z" fill="white"/>
<path d="M104.506 149.58C104.63 149.712 104.697 149.888 104.694 150.069C104.691 150.251 104.617 150.424 104.489 150.552C104.36 150.68 104.187 150.754 104.005 150.757C103.823 150.76 103.647 150.693 103.514 150.569C97.7792 145.663 92.0443 140.76 86.3093 135.86C86.3027 135.853 86.2948 135.846 86.2859 135.842C85.8877 135.543 85.5109 135.217 85.1586 134.866C79.8213 134.245 73.9554 132.191 68.3982 131.3C63.4912 132.028 57.6628 137.564 52.7417 138.208C48.4542 138.803 44.1317 139.112 39.8031 139.133C36.2807 139.114 37.2998 127.769 34.1049 126.107C30.7837 124.38 25.0588 127.635 24.2074 124.144C23.7724 122.365 21.6245 120.54 21.4841 118.705V107.32C21.9379 102.363 25.2272 97.452 28.9834 93.9931C34.6201 88.8022 43.0588 88.6669 50.2719 88.5221C58.8678 88.3412 67.4664 88.717 76.0136 89.6471C82.9834 90.4127 90.3135 91.1549 96.7594 94.1191C99.5751 95.3423 102.066 97.2044 104.033 99.5573C106.206 102.355 107.436 105.767 107.546 109.304C107.888 116.815 104.464 123.686 102.588 130.777C100.96 136.915 100.043 144.356 104.506 149.58Z" fill="#F2F2F2"/>
<path d="M86.961 136.58C92.7752 141.553 98.5903 146.525 104.406 151.497C104.539 151.62 104.715 151.688 104.897 151.685C105.079 151.681 105.253 151.608 105.381 151.48C105.51 151.351 105.584 151.178 105.587 150.996C105.59 150.815 105.523 150.639 105.398 150.506C100.936 145.287 101.853 137.846 103.48 131.704C105.358 124.612 108.782 117.744 108.439 110.235C108.33 106.696 107.1 103.283 104.925 100.486C102.959 98.1331 100.469 96.2711 97.6531 95.0491C91.2074 92.085 83.8787 91.3395 76.9057 90.5758C68.3596 89.6449 59.762 89.2685 51.1671 89.4493C43.9518 89.5973 35.5116 89.7288 29.8753 94.9211C24.7422 99.6498 24.0411 107.086 24.0906 113.652C24.1193 117.455 24.1924 121.362 25.0985 125.074C25.9503 128.564 27.7975 131.963 31.1198 133.69C34.3153 135.35 38.1117 135.376 41.6308 135.393C45.9594 135.375 50.2819 135.066 54.5688 134.467C63.1488 133.347 71.6469 131.538 80.2962 130.991C82.4128 130.857 84.5358 130.798 86.6564 130.842C87.5598 130.861 87.5597 129.46 86.6564 129.442C78.2464 129.266 69.9229 130.707 61.6484 132.02C53.6449 133.289 45.4632 134.486 37.3394 133.844C35.5585 133.761 33.8074 133.356 32.1709 132.651C30.5903 131.901 29.2529 130.723 28.3116 129.251C26.1967 125.964 25.7959 121.847 25.6133 118.012C25.4048 114.694 25.4357 111.365 25.7056 108.051C26.0173 104.837 26.7679 101.578 28.4826 98.8037C32.3938 92.4757 41.3107 87.2589 47.0507 90.9793C53.609 95.23 61.9966 95.4138 72.0617 91.509C75.999 89.9815 80.4726 92.3465 84.6498 92.9754C87.7716 93.405 90.8508 94.1004 93.8537 95.0541C96.743 95.9341 99.435 97.362 101.782 99.2597C104.239 101.333 105.949 104.151 106.652 107.284C108.263 114.5 105.071 121.702 102.961 128.454C101.08 134.473 99.4755 141.542 102.008 147.615C102.598 149.026 103.408 150.336 104.406 151.497L105.398 150.506C99.5842 145.533 93.7691 140.561 87.9533 135.589C87.271 135.006 86.2739 135.992 86.961 136.58H86.961Z" fill="#E6E6E6"/>
<path d="M62.1862 103.997H41.0331C40.839 103.997 40.6529 103.92 40.5156 103.783C40.3784 103.646 40.3013 103.461 40.3013 103.267C40.3013 103.073 40.3784 102.887 40.5156 102.751C40.6529 102.614 40.839 102.537 41.0331 102.537H62.1862C62.3803 102.537 62.5665 102.614 62.7037 102.751C62.841 102.887 62.9181 103.073 62.9181 103.267C62.9181 103.461 62.841 103.646 62.7037 103.783C62.5665 103.92 62.3803 103.997 62.1862 103.997Z" fill="white"/>
<path d="M62.1862 119.572H41.0331C40.839 119.572 40.6529 119.495 40.5156 119.358C40.3784 119.221 40.3013 119.035 40.3013 118.841C40.3013 118.647 40.3784 118.462 40.5156 118.325C40.6529 118.188 40.839 118.111 41.0331 118.111H62.1862C62.3803 118.111 62.5665 118.188 62.7037 118.325C62.841 118.462 62.9181 118.647 62.9181 118.841C62.9181 119.035 62.841 119.221 62.7037 119.358C62.5665 119.495 62.3803 119.572 62.1862 119.572Z" fill="white"/>
<path d="M79.3659 111.79H41.0331C40.839 111.79 40.6529 111.713 40.5156 111.576C40.3784 111.439 40.3013 111.253 40.3013 111.059C40.3013 110.865 40.3784 110.68 40.5156 110.543C40.6529 110.406 40.839 110.329 41.0331 110.329H79.3659C79.56 110.329 79.7462 110.406 79.8834 110.543C80.0207 110.68 80.0978 110.865 80.0978 111.059C80.0978 111.253 80.0207 111.439 79.8834 111.576C79.7462 111.713 79.56 111.79 79.3659 111.79Z" fill="white"/>
<path d="M219.808 175.477H160.694C160.151 175.477 159.631 175.261 159.248 174.879C158.864 174.496 158.649 173.977 158.649 173.436C158.649 172.894 158.864 172.375 159.248 171.992C159.631 171.61 160.151 171.395 160.694 171.395H219.808C220.351 171.395 220.871 171.61 221.255 171.992C221.638 172.375 221.854 172.894 221.854 173.436C221.854 173.977 221.638 174.496 221.255 174.879C220.871 175.261 220.351 175.477 219.808 175.477Z" fill="#F2F2F2"/>
<path d="M219.808 219H160.694C160.151 219 159.631 218.785 159.248 218.402C158.864 218.019 158.649 217.5 158.649 216.959C158.649 216.418 158.864 215.899 159.248 215.516C159.631 215.133 160.151 214.918 160.694 214.918H219.808C220.351 214.918 220.871 215.133 221.255 215.516C221.638 215.899 221.854 216.418 221.854 216.959C221.854 217.5 221.638 218.019 221.255 218.402C220.871 218.785 220.351 219 219.808 219Z" fill="#F2F2F2"/>
<path d="M267.819 197.252H160.694C160.425 197.253 160.159 197.2 159.91 197.098C159.662 196.996 159.436 196.845 159.246 196.656C159.056 196.466 158.905 196.241 158.802 195.993C158.699 195.745 158.646 195.48 158.646 195.211C158.646 194.943 158.699 194.677 158.802 194.43C158.905 194.182 159.056 193.957 159.246 193.767C159.436 193.578 159.662 193.427 159.91 193.325C160.159 193.223 160.425 193.17 160.694 193.17H267.819C268.361 193.171 268.88 193.387 269.263 193.769C269.646 194.152 269.861 194.671 269.861 195.211C269.861 195.752 269.646 196.271 269.263 196.654C268.88 197.036 268.361 197.252 267.819 197.252Z" fill="#F2F2F2"/>
<path d="M127.328 194.961L130.687 198.115L144.748 186.402L139.792 181.747L127.328 194.961Z" fill="#FFB6B6"/>
<path d="M133.443 208.6L131.577 199.916L133.839 197.518L132.621 196.501L128.84 193.358L127.916 192.585L119.219 200.39L121.74 202.755L124.427 200.804L123.337 204.257L130.013 210.529C130.334 210.83 130.742 211.02 131.178 211.073C131.614 211.126 132.056 211.038 132.439 210.823C132.822 210.608 133.126 210.276 133.306 209.876C133.487 209.476 133.535 209.029 133.443 208.6V208.6Z" fill="#2F2E41"/>
<path d="M110.957 207.158L115.516 207.849L120.419 190.237L113.69 189.217L110.957 207.158Z" fill="#FFB6B6"/>
<path d="M123.754 214.915L117.274 208.827L117.77 205.571L116.19 205.425L111.288 204.981L110.087 204.87L107.375 216.224L110.796 216.74L111.897 213.611L112.966 217.071L122.031 218.447C122.465 218.513 122.909 218.438 123.299 218.234C123.688 218.03 124.001 217.708 124.194 217.313C124.386 216.919 124.448 216.473 124.368 216.042C124.289 215.611 124.074 215.216 123.754 214.915L123.754 214.915Z" fill="#2F2E41"/>
<path d="M154.82 82.0469L167.896 105.417C167.896 105.417 167.35 153.481 169.088 155.264C170.826 157.046 172.399 158.645 170.826 158.631C169.252 158.616 169.76 169.986 169.76 169.986L140.758 192.393L133.741 186.791L151.344 165.109L141.623 120.727C141.623 120.727 134.638 162.699 133.38 163.955C132.121 165.211 131.362 165.202 132.685 166.462C134.009 167.723 132.685 170.574 132.685 170.574L118.887 199.152L111.403 198.21C111.403 198.21 112.7 174.879 117.219 164.864V117.533C116.878 121.591 132.797 80.5174 123.063 83.6002C126.142 82.6248 154.82 82.0469 154.82 82.0469Z" fill="#2F2E41"/>
<path d="M148.822 26.3535H138.012L136.482 32.4625L128.171 34.7559C128.171 34.7559 124.06 61.9611 127.512 64.1554C130.965 66.3498 128.557 73.214 128.557 73.214C128.557 73.214 119.959 82.4807 120.991 83.8536C122.023 85.2264 124.116 83.1375 121.694 85.5548C119.271 87.9721 117.896 87.6289 118.584 88.3153C119.009 88.7507 119.339 89.2698 119.552 89.8395L116.585 97.5477C116.585 97.5477 132.341 100.671 140.251 96.2091C148.161 91.7474 165.702 100.328 165.702 100.328C165.702 100.328 164.799 95.8227 164.047 95.1579C163.294 94.4931 161.539 96.174 162.761 93.9607C163.982 91.7474 165.014 92.777 163.982 91.7474C162.95 90.7178 158.479 76.9894 158.479 76.9894C158.479 76.9894 155.04 69.4387 158.823 66.3498C162.606 63.261 164.047 53.1295 164.047 53.1295L159.512 34.7559L151.944 33.0584L148.822 26.3535Z" fill="#E6E6E6"/>
<path d="M106.032 96.4979L108.628 86.1134L102.891 83.8057L100.537 94.8823C100 95.2787 99.5849 95.8168 99.3376 96.4359C99.0904 97.0551 99.0211 97.7308 99.1375 98.3871C99.254 99.0434 99.5516 99.6543 99.9969 100.151C100.442 100.648 101.017 101.011 101.658 101.199C102.299 101.388 102.979 101.394 103.624 101.217C104.268 101.041 104.85 100.689 105.304 100.2C105.758 99.7117 106.067 99.1064 106.196 98.4524C106.325 97.7984 106.268 97.1215 106.032 96.4979V96.4979Z" fill="#FFB6B6"/>
<path d="M131.251 34.0619L131.08 34.0325C129.487 33.7594 127.851 33.8778 126.314 34.3776C124.778 34.8773 123.386 35.7433 122.26 36.9006C119.322 39.918 106.202 62.3575 106.674 66.1078C107.115 69.6052 107.284 68.8272 105.682 70.6129C104.079 72.3986 103.469 69.6792 103.444 73.397C103.42 77.1148 104.843 77.0825 103.33 77.9915C101.817 78.9006 100.817 78.2673 101.093 80.7757C101.369 83.284 100.946 83.9496 100.857 84.8263C100.767 85.7029 98.5948 91.3282 98.5948 91.3282C98.5948 91.3282 104.988 93.0415 107.567 95.6068C107.567 95.6068 107.86 89.2589 109.162 88.6827C110.463 88.1065 111.675 88.4069 111.309 86.7753C110.943 85.1436 109.064 84.421 111.366 84.478C113.668 84.535 117.224 72.3185 117.224 72.3185L132.599 44.325L131.251 34.0619Z" fill="#E6E6E6"/>
<path d="M165.949 101.642L166.411 90.9493L172.569 90.3604L171.677 101.648C172.079 102.18 172.325 102.814 172.386 103.478C172.447 104.141 172.321 104.809 172.023 105.405C171.725 106.002 171.266 106.503 170.698 106.854C170.13 107.204 169.475 107.389 168.807 107.388C168.139 107.388 167.484 107.201 166.917 106.85C166.349 106.498 165.892 105.996 165.595 105.399C165.298 104.801 165.173 104.134 165.236 103.47C165.299 102.806 165.545 102.173 165.949 101.642Z" fill="#FFB6B6"/>
<path d="M159.511 34.6321L159.684 34.6524C161.289 34.8413 162.824 35.4179 164.156 36.3321C165.487 37.2463 166.575 38.4706 167.326 39.899C169.287 43.6243 175.489 68.8556 173.971 72.3182C172.554 75.5473 172.613 74.7533 173.642 76.9193C174.671 79.0853 176.029 76.6502 174.996 80.2223C173.963 83.7945 172.607 83.3605 173.8 84.6605C174.992 85.9604 176.132 85.6364 175.154 87.9635C174.176 90.2906 174.392 91.0486 174.229 91.9146C174.066 92.7806 174.55 98.7897 174.55 98.7897C174.55 98.7897 167.932 98.623 164.73 100.353C164.73 100.353 166.253 94.183 165.169 93.262C164.085 92.341 162.837 92.2861 163.652 90.825C164.466 89.3639 166.473 89.2029 164.25 88.6059C162.026 88.009 162.089 75.2878 162.089 75.2878L155.302 44.0921L159.511 34.6321Z" fill="#E6E6E6"/>
<path d="M118.856 19.1458C118.77 22.8278 120.149 26.3931 122.13 29.5246C122.792 27.7063 123.718 25.9952 124.88 24.4465C124.324 27.8777 124.916 31.3962 126.566 34.4575C126.624 34.499 126.684 34.5375 126.746 34.573C128.361 35.5422 130.408 35.9348 132.155 35.2348C128.546 31.3526 128.087 24.9205 131.112 20.566C131.969 19.3304 133.077 18.2377 133.607 16.8315C134.445 14.588 133.64 12.1178 133.132 9.77864C132.657 7.60161 132.574 5.01092 134.037 3.41544C133.881 3.19247 133.668 3.01499 133.42 2.90118C133.173 2.78737 132.899 2.74132 132.628 2.76776C131.725 2.89496 131.068 3.67768 130.65 4.48384C130.232 5.28997 129.956 6.18346 129.373 6.87974C128.293 8.18301 126.454 8.49113 124.905 9.178C121.152 10.8459 118.946 15.0487 118.856 19.1458Z" fill="#2F2E41"/>
<path d="M150.443 17.0407C150.228 16.2917 151.706 20.87 150.993 20.9526C147.745 21.3245 143.285 23.2605 141.023 24.1637C140.921 24.1519 140.819 24.1401 140.72 24.1253C140.478 24.0987 140.241 24.0604 140.007 24.0161C134.739 23.0214 132.713 14.9458 132.713 14.872C132.713 14.509 133.586 4.53779 134.962 4.39021C135.323 4.35109 135.686 4.33139 136.05 4.33117H139.463C140.169 4.1793 140.885 4.07575 141.605 4.02126H141.611C148.483 3.49883 153.901 7.67825 153.394 12.7638C153.391 12.7697 153.385 12.7756 153.382 12.7815C153.235 13 153.107 13.2066 152.993 13.4043C152.882 13.5903 152.789 13.7674 152.708 13.9356C152.082 15.2343 153.692 16.8685 152.624 17.1735C151.204 17.5792 156.358 30.9131 150.738 30.9131C153.472 31.6886 151.034 19.1068 150.443 17.0407Z" fill="#2F2E41"/>
<path d="M144.309 24.8645C148.772 24.8645 152.39 21.254 152.39 16.8002C152.39 12.3464 148.772 8.73584 144.309 8.73584C139.846 8.73584 136.228 12.3464 136.228 16.8002C136.228 21.254 139.846 24.8645 144.309 24.8645Z" fill="#FFB6B6"/>
<path d="M153.394 13.2036C153.259 13.2744 153.128 13.3393 152.993 13.4043C152.852 13.4722 152.711 13.5401 152.57 13.6021C149.864 14.827 147.662 14.9627 146.325 13.2036C146.289 12.278 146.081 11.3671 145.711 10.5177C145.776 11.4669 145.525 12.4112 144.998 13.2036H142.307C139.535 15.0395 138.111 15.2313 140.035 21.2584C140.572 22.9379 142.704 32.7106 141.865 34.1598C141.623 34.1332 139.04 23.4291 138.806 23.3849C133.538 22.3902 130.191 13.729 130.62 13.239C130.617 11.8457 130.939 10.4708 131.558 9.22192C132.341 7.63967 133.561 6.31431 135.076 5.40259C135.978 4.96588 136.919 4.61315 137.886 4.34887C137.91 4.34296 137.931 4.33705 137.955 4.33116C138.252 4.25146 138.555 4.17767 138.857 4.11569C139.483 3.98394 140.115 3.88835 140.751 3.82939C140.796 3.82644 140.841 3.82349 140.883 3.82349C141.137 3.82408 141.387 3.89235 141.605 4.02124C141.608 4.02124 141.608 4.02419 141.611 4.02419C141.768 4.11536 141.904 4.23678 142.013 4.38133C142.204 4.62453 142.308 4.92511 142.307 5.23434H145.303C145.414 5.23434 145.525 5.23729 145.636 5.24318C147.636 5.31139 149.538 6.12193 150.971 7.51617C152.404 8.91042 153.264 10.788 153.382 12.7815C153.391 12.9232 153.394 13.0619 153.394 13.2036Z" fill="#2F2E41"/>
<path d="M135.725 10.6257C138.666 10.6257 141.049 8.24704 141.049 5.31284C141.049 2.37864 138.666 0 135.725 0C132.785 0 130.401 2.37864 130.401 5.31284C130.401 8.24704 132.785 10.6257 135.725 10.6257Z" fill="#2F2E41"/>
<path d="M186.313 165.385C186.53 165.394 186.745 165.338 186.929 165.221C187.113 165.105 187.257 164.935 187.341 164.735C187.425 164.535 187.445 164.313 187.399 164.101C187.352 163.889 187.242 163.696 187.082 163.548L187.009 163.26C187.019 163.237 187.028 163.214 187.038 163.191C187.257 162.674 187.624 162.234 188.093 161.925C188.562 161.616 189.112 161.453 189.674 161.455C190.236 161.457 190.784 161.625 191.251 161.937C191.718 162.249 192.081 162.692 192.297 163.21C193.157 165.277 194.252 167.348 194.521 169.533C194.64 170.499 194.59 171.479 194.373 172.428C196.393 168.03 197.442 163.251 197.449 158.414C197.449 157.2 197.382 155.987 197.246 154.781C197.135 153.792 196.98 152.81 196.781 151.835C195.698 146.546 193.374 141.588 189.998 137.369C188.365 136.48 187.043 135.112 186.213 133.45C185.912 132.852 185.699 132.215 185.581 131.556C185.765 131.58 186.276 128.78 186.137 128.608C186.394 128.219 186.854 128.025 187.134 127.646C188.529 125.758 190.451 126.088 191.455 128.653C193.598 129.732 193.619 131.523 192.304 133.245C191.467 134.34 191.352 135.823 190.618 136.995C190.693 137.092 190.772 137.185 190.847 137.282C192.228 139.054 193.431 140.956 194.44 142.962C194.195 140.715 194.488 138.441 195.295 136.329C196.112 134.36 197.645 132.702 198.995 131.001C199.352 130.543 199.837 130.202 200.388 130.02C200.939 129.838 201.533 129.823 202.092 129.977C202.652 130.131 203.154 130.447 203.534 130.885C203.914 131.324 204.155 131.865 204.227 132.44C204.229 132.465 204.232 132.49 204.235 132.515C204.034 132.628 203.838 132.748 203.646 132.875C203.405 133.035 203.218 133.265 203.11 133.534C203.002 133.802 202.977 134.097 203.04 134.38C203.103 134.663 203.25 134.92 203.461 135.118C203.673 135.316 203.94 135.445 204.226 135.489L204.256 135.494C204.184 136.215 204.058 136.93 203.878 137.632C205.61 144.314 201.871 146.748 196.533 146.858C196.416 146.918 196.301 146.978 196.183 147.035C197.196 149.902 197.832 152.888 198.074 155.918C198.211 157.705 198.203 159.501 198.05 161.287L198.059 161.224C198.446 159.238 199.508 157.445 201.065 156.15C203.379 154.253 206.647 153.555 209.143 152.031C209.408 151.861 209.717 151.77 210.032 151.769C210.347 151.768 210.656 151.858 210.922 152.026C211.188 152.195 211.4 152.436 211.534 152.721C211.667 153.006 211.716 153.323 211.674 153.635L211.664 153.702C211.292 153.853 210.93 154.027 210.579 154.223C210.379 154.336 210.183 154.456 209.991 154.583C209.749 154.743 209.563 154.973 209.454 155.242C209.346 155.51 209.322 155.805 209.385 156.088C209.448 156.371 209.594 156.628 209.806 156.826C210.018 157.024 210.284 157.153 210.571 157.197L210.601 157.202C210.622 157.205 210.64 157.208 210.661 157.211C210.025 158.726 209.133 160.12 208.023 161.333C206.941 167.166 202.29 167.72 197.316 166.021H197.313C196.767 168.388 195.976 170.691 194.953 172.895H186.524C186.494 172.802 186.466 172.705 186.439 172.612C187.219 172.661 188.003 172.614 188.772 172.473C188.146 171.707 187.521 170.935 186.895 170.169C186.881 170.155 186.868 170.14 186.856 170.124C186.539 169.732 186.219 169.343 185.901 168.951L185.901 168.951C185.884 167.75 186.022 166.551 186.312 165.385L186.313 165.385Z" fill="#F2F2F2"/>
<path d="M63.1376 218.365C63.1374 218.438 63.1516 218.51 63.1795 218.578C63.2074 218.645 63.2484 218.707 63.3001 218.758C63.3519 218.81 63.4133 218.851 63.481 218.879C63.5486 218.907 63.6211 218.921 63.6943 218.921H294.443C294.591 218.921 294.733 218.862 294.837 218.758C294.941 218.654 295 218.512 295 218.365C295 218.218 294.941 218.076 294.837 217.972C294.733 217.868 294.591 217.81 294.443 217.81H63.6943C63.6211 217.809 63.5486 217.824 63.481 217.851C63.4133 217.879 63.3519 217.92 63.3001 217.972C63.2484 218.023 63.2074 218.085 63.1795 218.152C63.1516 218.22 63.1374 218.292 63.1376 218.365Z" fill="#CCCCCC"/>
<path d="M167.628 99.1671C168.279 99.8522 167.292 100.742 166.533 100.155C160.202 95.2568 153.871 90.3617 147.539 85.4696C147.532 85.4619 147.523 85.4557 147.514 85.451C147.077 85.1553 146.661 84.8299 146.269 84.4769C140.377 83.8571 133.901 81.8064 127.766 80.9163C122.348 81.6433 116.947 82.5102 111.514 83.1533C106.776 83.7474 102.005 84.0556 97.2298 84.0761C93.3412 84.0575 89.153 84.0342 85.6259 82.375C81.9593 80.6506 79.9195 77.2577 78.9796 73.7716C78.5161 71.9924 78.2136 70.1752 78.0758 68.342V56.9749C78.5767 52.0253 80.1053 47.1224 84.2522 43.6689C90.475 38.4863 99.7912 38.3512 107.754 38.2067C117.241 38.0259 126.73 38.401 136.173 39.3299C143.868 40.0942 151.96 40.8353 159.076 43.7947C162.128 45.0671 165.005 46.8335 167.106 49.2243C169.472 51.9329 170.84 55.3658 170.985 58.9556C171.362 66.4545 167.582 73.3149 165.511 80.3943C163.714 86.5229 162.701 93.9519 167.628 99.1671Z" fill="#20577D"/>
<path d="M120.658 50.7819H99.505C99.4089 50.7819 99.3138 50.7631 99.225 50.7263C99.1362 50.6896 99.0555 50.6359 98.9875 50.568C98.9196 50.5002 98.8657 50.4197 98.8289 50.3311C98.7921 50.2425 98.7732 50.1475 98.7732 50.0516C98.7732 49.9557 98.7921 49.8607 98.8289 49.7721C98.8657 49.6835 98.9196 49.603 98.9875 49.5352C99.0555 49.4674 99.1362 49.4136 99.225 49.3769C99.3138 49.3402 99.4089 49.3213 99.505 49.3213H120.658C120.852 49.3213 121.038 49.3982 121.176 49.5352C121.313 49.6722 121.39 49.8579 121.39 50.0516C121.39 50.2453 121.313 50.4311 121.176 50.568C121.038 50.705 120.852 50.7819 120.658 50.7819Z" fill="white"/>
<path d="M120.658 66.3562H99.505C99.3109 66.3562 99.1248 66.2792 98.9875 66.1423C98.8503 66.0053 98.7732 65.8195 98.7732 65.6258C98.7732 65.4321 98.8503 65.2464 98.9875 65.1094C99.1248 64.9724 99.3109 64.8955 99.505 64.8955H120.658C120.852 64.8955 121.038 64.9724 121.176 65.1094C121.313 65.2464 121.39 65.4321 121.39 65.6258C121.39 65.8195 121.313 66.0053 121.176 66.1423C121.038 66.2792 120.852 66.3562 120.658 66.3562Z" fill="white"/>
<path d="M137.838 58.5742H99.505C99.3109 58.5742 99.1248 58.4972 98.9875 58.3603C98.8503 58.2233 98.7732 58.0376 98.7732 57.8439C98.7732 57.6502 98.8503 57.4644 98.9875 57.3274C99.1248 57.1905 99.3109 57.1135 99.505 57.1135H137.838C138.032 57.1135 138.218 57.1905 138.355 57.3274C138.493 57.4644 138.57 57.6502 138.57 57.8439C138.57 58.0376 138.493 58.2233 138.355 58.3603C138.218 58.4972 138.032 58.5742 137.838 58.5742Z" fill="white"/>
<path d="M172.423 51.3149C174.384 54.4368 175.493 58.0301 175.153 61.7339C174.86 64.9297 173.547 67.9353 172.11 70.7676C170.622 73.7028 168.956 76.553 167.739 79.6177C166.402 82.958 165.909 86.5747 166.301 90.15C166.541 92.4713 167.011 94.7612 167.453 97.0504L168.803 104.039L169.975 103.357L150.573 86.6188C149.893 86.032 148.896 87.0183 149.581 87.609L168.983 104.348C169.094 104.452 169.236 104.517 169.388 104.535C169.539 104.552 169.692 104.52 169.824 104.443C169.956 104.367 170.059 104.25 170.119 104.11C170.179 103.97 170.192 103.814 170.156 103.666C169.363 99.5606 168.426 95.4527 167.845 91.3106C167.511 89.2219 167.464 87.0975 167.706 84.9961C167.943 83.3944 168.365 81.8254 168.963 80.3201C171.29 74.252 175.649 68.9437 176.489 62.3463C177.015 58.2127 175.831 54.1051 173.635 50.6081C173.156 49.8462 171.942 50.5483 172.423 51.3149V51.3149Z" fill="#3F3D56"/>
<path d="M151.8 80.4925L123.105 83.8801L108.758 85.5739C104.387 86.0899 99.8323 86.8144 95.4649 85.9013C88.1122 84.3641 83.5468 77.7155 82.1105 70.7087C81.2214 66.3714 81.5361 61.8333 82.2841 57.5001C82.6829 55.19 83.2091 52.904 83.7778 50.6303C84.2846 48.604 84.6626 46.422 85.5384 44.5146C86.2372 42.9637 87.277 41.5897 88.5806 40.4946C89.8843 39.3995 91.4183 38.6114 93.0689 38.1888C94.0999 37.978 95.1445 37.8398 96.195 37.7755C97.3751 37.6573 98.5561 37.5485 99.738 37.4491C102.102 37.2504 104.468 37.0895 106.838 36.9663C108.022 36.9048 109.207 36.8526 110.392 36.8099C111.293 36.777 111.297 35.3765 110.392 35.4095C105.46 35.5897 100.537 35.9309 95.624 36.4331C93.6224 36.6388 91.7718 36.9362 89.965 37.8718C88.4037 38.6867 87.0325 39.8215 85.9412 41.2019C84.8229 42.6259 84.0026 44.2596 83.5288 46.006C82.8831 48.3265 82.297 50.67 81.7623 53.0183C80.6845 57.7519 79.9098 62.6308 80.2697 67.4972C80.802 74.6948 84.2551 82.3739 90.9566 85.8006C94.9139 87.8241 99.4298 87.9148 103.766 87.5284C108.602 87.0975 113.425 86.4234 118.246 85.8542L148.097 82.33L151.8 81.8929C152.686 81.7883 152.696 80.3867 151.8 80.4925H151.8Z" fill="#3F3D56"/>
</g>
<defs>
<clipPath id="clip0_774_1924">
<rect width="295" height="219" fill="white"/>
</clipPath>
</defs>
</svg>
